<?xml version="1.0" encoding="UTF-8" standalone="no"?>
<svg width="144px" height="144px" viewBox="0 0 144 144" version="1.1" xmlns="http://www.w3.org/2000/svg" xmlns:xlink="http://www.w3.org/1999/xlink">
    <!-- Generator: Sketch 3.6.1 (26313) - http://www.bohemiancoding.com/sketch -->
    <title>xxhdpi@1x</title>
    <desc>Created with Sketch.</desc>
    <defs>
        <path id="path-1" d="M44.499382,144 C28.1681088,144 18.7787392,144 9.38936959,134.61063 C-5.59835512e-08,125.221261 0,115.831891 0,99.500618 L0,44.499382 C0,28.1681088 -5.59835512e-08,18.7787391 9.38936959,9.38936959 C18.7787392,0 28.1681088,0 44.499382,0 L99.500618,0 C115.831891,0 125.221261,0 134.61063,9.38936959 C144,18.7787391 144,28.1681088 144,44.499382 L144,99.500618 C144,115.831891 144,125.221261 134.61063,134.61063 C125.221261,144 115.831891,144 99.500618,144 L44.499382,144 Z"></path>
        <rect id="path-3" x="0" y="0" width="79.296596" height="100.96875" rx="3.9375"></rect>
        <rect id="path-5" x="0" y="0" width="86.90625" height="83.205318"></rect>
    </defs>
    <g id="iOS-&amp;-Android" stroke="none" stroke-width="1" fill="none" fill-rule="evenodd">
        <g id="xxhdpi">
            <g id="Group">
                <path d="M44.499382,144 C28.1681088,144 18.7787392,144 9.38936959,134.61063 C-5.59835512e-08,125.221261 0,115.831891 0,99.500618 L0,44.499382 C0,28.1681088 -5.59835512e-08,18.7787391 9.38936959,9.38936959 C18.7787392,0 28.1681088,0 44.499382,0 L99.500618,0 C115.831891,0 125.221261,0 134.61063,9.38936959 C144,18.7787391 144,28.1681088 144,44.499382 L144,99.500618 C144,115.831891 144,125.221261 134.61063,134.61063 C125.221261,144 115.831891,144 99.500618,144 L44.499382,144 Z" id="mask" fill="#009587"></path>
                <g id="Rectangle-15">
                    <mask id="mask-2" fill="white">
                        <use xlink:href="#path-1"></use>
                    </mask>
                    <use id="Mask" fill="#617ACC" xlink:href="#path-1"></use>
                    <path d="M25.3125,119.742188 L25.3125,22.21875 L103.571411,24.3962402 L146.25,96.005127 L146.25,169.468506 L71.4375,169.468506 L25.3125,119.742188 Z" fill="#4C61A8" mask="url(#mask-2)"></path>
                </g>
                <g id="icon" transform="translate(25.312500, 22.218750)">
                    <g id="mask">
                        <mask id="mask-4" fill="white">
                            <use xlink:href="#path-3"></use>
                        </mask>
                        <use id="Mask" fill="#FFFFFF" xlink:href="#path-3"></use>
                    </g>
                    <g id="screenshot" transform="translate(15.857143, 6.923139)">
                        <mask id="mask-6" fill="white">
                            <use xlink:href="#path-5"></use>
                        </mask>
                        <use id="Mask" xlink:href="#path-5"></use>
                        <g id="Page-1" mask="url(#mask-6)">
                            <g transform="translate(0.000000, -5.724096)">
                                <g id="Group-4" stroke="none" stroke-width="1" fill="none" fill-rule="evenodd" transform="translate(75.883695, 77.438669)">
                                    <path d="M0.24310042,62.1866506 L65.2187424,62.1866506 L65.2187424,0.175614873 L0.24310042,0.175614873 L0.24310042,62.1866506 Z" id="Stroke-1" stroke="#8AC249" stroke-width="5.90625"></path>
                                </g>
                                <path d="M11.151153,77.6142843 L76.1267949,77.6142843 L76.1267949,15.6032486 L11.151153,15.6032486 L11.151153,77.6142843 Z" id="Stroke-3" stroke="#8AC249" stroke-width="5.90625" fill="none"></path>
                                <path d="M1.15490038,39.2418554 L59.90625,39.2418554 L59.90625,30.3377067 L1.15490038,30.3377067 L1.15490038,39.2418554 Z" id="Fill-5" stroke="none" fill="#FFFFFF" fill-rule="evenodd"></path>
                                <path d="M72.28125,39.2418554 L79.875,39.2418554 L79.875,30.3377067 L72.28125,30.3377067 L72.28125,39.2418554 Z" id="Fill-5" stroke="none" fill="#4C61A8" fill-rule="evenodd"></path>
                                <path d="M72.28125,62.8614296 L81.6110858,62.8614296 L81.6110858,53.9572809 L72.28125,53.9572809 L72.28125,62.8614296 Z" id="Fill-5" stroke="none" fill="#4C61A8" fill-rule="evenodd"></path>
                                <path d="M0,62.8804623 L62.71875,62.8804623 L62.71875,53.9763135 L0,53.9763135 L0,62.8804623 Z" id="Fill-6" stroke="none" fill="#FFFFFF" fill-rule="evenodd"></path>
                                <path d="M51.3580802,83.2957672 L60.687916,83.2957672 L60.687916,0 L51.3580802,0 L51.3580802,83.2957672 Z" id="Fill-7" stroke="none" fill="#FFFFFF" fill-rule="evenodd"></path>
                                <path d="M26.5900319,86.0096246 L35.9198677,86.0096246 L35.9198677,2.71385733 L26.5900319,2.71385733 L26.5900319,86.0096246 Z" id="Fill-8" stroke="none" fill="#FFFFFF" fill-rule="evenodd"></path>
                            </g>
                        </g>
                    </g>
                    <g id="lines" transform="translate(34.109933, 28.880148)" stroke="#617ACC" stroke-width="3.65625" stroke-linecap="square">
                        <path d="M26.0314516,10.828125 L14.6063862,10.828125" id="Line"></path>
                        <path d="M38.3954934,30.796875 L26.970428,30.796875" id="Line"></path>
                        <path d="M9.54606262,30.796875 L3.47874864,30.796875" id="Line"></path>
                        <path d="M21.9101044,38.953125 L15.8427904,38.953125" id="Line"></path>
                        <path d="M38.0306919,0.421875 L21.4979696,0.421875" id="Line"></path>
                        <path d="M21.4979696,20.390625 L0.343191952,20.390625" id="Line"></path>
                        <path d="M5.8368501,0.421875 L0.624441963,0.421875" id="Line"></path>
                    </g>
                </g>
            </g>
        </g>
    </g>
</svg>